<?xml version="1.0" encoding="UTF-8"?><svg id="Layer_2" xmlns="http://www.w3.org/2000/svg" viewBox="0 0 343.57 53.37"><defs><style>.cls-1{fill:#000000;}</style></defs><path class="cls-1" d="M254.66,18.1c1.62,0,2.79.41,3.76,1.05,1.03.68,2.38.58,3.26-.29l3.11-3.1c-1.76-2.13-4.68-4.06-9.24-4.06-8.33,0-16.37,5.94-18.2,16.32-1.86,10.55,4,15.99,12.62,15.99,4.35,0,8.5-1.72,11.05-3.81l2.57-14.56h-11.59l-1.08,6.11h4.94l-.89,5.02c-.76.5-1.98.8-3.07.8-5.82,0-7.94-3.6-6.85-9.79,1.07-6.07,5.01-9.67,9.61-9.67Z"/><path class="cls-1" d="M278.46,12.24h-7.49l-5.5,31.18h17.48c1.24,0,2.3-.89,2.52-2.11l.73-4.17h-12.14l4.39-24.9Z"/><path class="cls-1" d="M306.96,25.71l-3.62-1.55c-2.57-1.09-4.38-1.76-4.07-3.52.29-1.63,1.83-2.55,4.13-2.55,1.7,0,3.08.41,4.36,1.19,1.01.61,2.3.5,3.12-.35l3.05-3.14c-2.24-2.72-5.81-4.1-9.4-4.1-6.61,0-12.04,4.19-12.96,9.42-.8,4.52,1.78,7.24,4.81,8.54l3.68,1.67c2.48,1.13,4.09,1.72,3.77,3.52-.3,1.67-1.78,2.72-4.54,2.72-2.47,0-5.13-1.3-6.97-3.18l-5.18,5.15c2.7,2.97,6.79,4.48,10.85,4.48,7.53,0,12.69-4.56,13.61-9.75.77-4.39-1.07-6.99-4.65-8.54Z"/><polygon class="cls-1" points="336.77 33.49 343.57 28.09 318.26 0 316.33 10.8 336.77 33.49"/><path class="cls-1" d="M59.79,11.7c-8.5,0-15.29,5.78-17.09,15.99-1.8,10.21,2.9,16.32,11.39,16.32s15.35-6.11,17.15-16.32c1.79-10.17-2.96-15.99-11.45-15.99ZM63.63,27.68c-1.06,6.03-4.29,9.88-8.4,9.88s-5.93-3.85-4.87-9.88c1.06-6.03,4.2-9.58,8.3-9.58s6.03,3.56,4.96,9.58Z"/><path class="cls-1" d="M91.82,11.7c-8.5,0-15.29,5.78-17.09,15.99-1.8,10.21,2.9,16.32,11.39,16.32s15.35-6.11,17.15-16.32c1.79-10.17-2.96-15.99-11.45-15.99ZM95.65,27.68c-1.06,6.03-4.29,9.88-8.4,9.88s-5.93-3.85-4.87-9.88c1.06-6.03,4.2-9.58,8.3-9.58s6.03,3.56,4.96,9.58Z"/><path class="cls-1" d="M119.57,12.24h-8.96l-5.5,31.18h9.37c9.08,0,16.22-4.9,18.13-15.74,1.91-10.84-3.56-15.44-13.05-15.44ZM124.96,27.68c-1.31,7.41-5.27,9.71-10.29,9.71h-1l3.38-19.17h1c5.02,0,8.22,2.05,6.91,9.46Z"/><path class="cls-1" d="M161.39,12.24s-8.9,17.24-9.86,19.13h-.21c-.25-1.88-3.28-19.13-3.28-19.13h-8.08l-5.5,31.18h4.55c1.24,0,2.3-.89,2.52-2.11l3-17,3.04,16.47h4.1l8.9-16.55-3.38,19.19h4.68c1.24,0,2.3-.89,2.52-2.11l5.12-29.07h-8.12Z"/><path class="cls-1" d="M181.69,12.24l-15.17,31.18h5.93c1.02,0,1.95-.61,2.35-1.55l2.4-5.61h9.21l.54,7.16h7.87l-4.17-31.18h-8.96ZM179.64,30.49l1.14-2.64c1.34-3.1,2.82-6.74,4.15-10h.17c.28,3.18.41,6.9.71,10l.21,2.64h-6.36Z"/><polygon class="cls-1" points="223.7 34.31 226.46 18.64 226.46 18.64 223.7 34.31"/><polygon class="cls-1" points="222.46 41.31 223.7 34.31 222.46 41.31 222.46 41.31"/><path class="cls-1" d="M227.59,12.25h0s-7.11,0-7.11,0l-3.53,20.05-6.47-20.05h-7.62l-5.5,31.18h4.97c1.24,0,2.3-.89,2.52-2.11l3.18-18.05,6.45,20.16h5.47c1.24,0,2.3-.89,2.52-2.11l1.23-6.99,2.76-15.67h0l1.13-6.39h0Z"/><polygon class="cls-1" points="329.81 27.49 314.09 39.97 311.73 53.37 335.86 34.21 329.81 27.49"/><path class="cls-1" d="M22.75,11.69l-.84,4.77h14.92c1.24,0,2.3-.89,2.52-2.11l.47-2.65h-17.07Z"/><path class="cls-1" d="M27.27,24.71l-.84,4.77h3.54l-1.62,9.18h-10.35l3.91-22.19h-7.97l-3.2,18.15c-.4,2.26.09,4.43,1.35,6.07,1.36,1.75,3.49,2.74,5.91,2.74h8.66c2.42,0,4.9-.99,6.87-2.74,1.85-1.64,3.1-3.81,3.49-6.07l1.74-9.89h-11.51Z"/><polygon class="cls-1" points="14.79 11.69 22.75 11.69 23.59 6.93 15.63 6.93 14.79 11.69"/><polygon class="cls-1" points="5.99 16.46 13.95 16.46 14.79 11.69 6.83 11.69 5.99 16.46"/><polygon class="cls-1" points="15.63 6.93 10.86 6.93 11.7 2.16 16.47 2.16 15.63 6.93"/><polygon class="cls-1" points="3.14 14.83 0 14.83 .55 11.69 3.69 11.69 3.14 14.83"/><polygon class="cls-1" points="6.84 11.69 3.69 11.69 4.25 8.55 7.39 8.55 6.84 11.69"/></svg>